<svg width="103" height="127" viewBox="0 0 103 127" fill="none" xmlns="http://www.w3.org/2000/svg">
<g filter="url(#filter0_d)">
<rect width="103" height="126" rx="13" fill="#E5ECFE"/>
</g>
<path d="M28.7344 30V37.7344H26.8008V41.6016H42.2695V37.7344H40.3359V33.8672H49.2033L52.504 37.1678L55.2381 34.4337L50.8045 30H28.7344Z" fill="#008FDD"/>
<path d="M67.5352 82.3379C67.5352 83.4029 68.4019 84.2695 69.4688 84.2695C70.5338 84.2695 71.4023 83.4028 71.4023 82.3359C71.3853 81.743 70.581 80.0587 69.4688 78.1855C68.3546 80.0624 67.5502 81.7468 67.5352 82.3379Z" fill="#008FDD"/>
<path d="M79.2656 61.0664V57.1992H59.6719V61.0664H56.5431C53.2221 67.7764 51.9375 73.8484 51.9375 78.4688C51.9375 83.0846 53.219 89.2836 56.5431 96H82.3946C85.7155 89.2898 87 83.0891 87 78.4688C87 73.8529 85.7185 67.7828 82.3944 61.0664H79.2656ZM69.4688 88.1367C66.2701 88.1367 63.668 85.5346 63.668 82.3359C63.668 79.8642 66.6118 75.3361 67.8769 73.5026L69.4688 71.199L71.0606 73.5026C72.3257 75.3361 75.2695 79.8642 75.2695 82.3359C75.2695 85.5346 72.6674 88.1367 69.4688 88.1367Z" fill="#008FDD"/>
<path d="M59.6719 41.6016H79.2656V53.332H59.6719V41.6016Z" fill="#008FDD"/>
<path d="M32.6016 74.6035C32.6016 75.6684 33.4683 76.5352 34.5352 76.5352C35.6002 76.5352 36.4688 75.6684 36.4688 74.6016C36.4517 74.0086 35.6474 72.3243 34.5352 70.4512C33.421 72.328 32.6166 74.0125 32.6016 74.6035Z" fill="#008FDD"/>
<path d="M21 88.1367H48.0703V96H21V88.1367Z" fill="#008FDD"/>
<path d="M21 45.4688H48.0703V53.332H21V45.4688Z" fill="#008FDD"/>
<path d="M48.0703 57.1992H21V84.2695H48.0703V57.1992ZM34.5352 80.4023C31.3365 80.4023 28.7344 77.8002 28.7344 74.6016C28.7344 72.1298 31.6782 67.6017 32.9433 65.7683L34.5352 63.4646L36.127 65.7683C37.3921 67.6017 40.3359 72.1298 40.3359 74.6016C40.3359 77.8002 37.7338 80.4023 34.5352 80.4023Z" fill="#008FDD"/>
<defs>
<filter id="filter0_d" x="0" y="0" width="103" height="127" filterUnits="userSpaceOnUse" color-interpolation-filters="sRGB">
<feFlood flood-opacity="0" result="BackgroundImageFix"/>
<feColorMatrix in="SourceAlpha" type="matrix" values="0 0 0 0 0 0 0 0 0 0 0 0 0 0 0 0 0 0 127 0" result="hardAlpha"/>
<feOffset dy="1"/>
<feColorMatrix type="matrix" values="0 0 0 0 0 0 0 0 0 0.560784 0 0 0 0 0.866667 0 0 0 1 0"/>
<feBlend mode="normal" in2="BackgroundImageFix" result="effect1_dropShadow"/>
<feBlend mode="normal" in="SourceGraphic" in2="effect1_dropShadow" result="shape"/>
</filter>
</defs>
</svg>
