<svg width="37" height="63" viewBox="0 0 37 63" fill="none" xmlns="http://www.w3.org/2000/svg">
<path d="M24.6977 7.42137C24.6977 7.97523 24.4732 8.47665 24.1102 8.83962C23.7476 9.20221 23.2462 9.42671 22.6923 9.42671L14.1012 9.42708C13.5695 9.42708 13.0592 9.21587 12.6834 8.83999C12.3071 8.46373 12.0959 7.95344 12.0959 7.42174L12.0963 0.835613L0.283922 0.835982L0.283554 38.1775C0.283553 43.0161 2.16778 47.5647 5.58879 50.9857C8.53273 53.9297 12.3119 55.7341 16.3916 56.1806L16.3916 60.9578C16.3916 62.0655 17.2892 62.9631 18.397 62.9631C18.9508 62.9631 19.4519 62.739 19.8149 62.376C20.1778 62.0131 20.4023 61.5116 20.4019 60.9582L20.4019 56.1809C24.482 55.7342 28.2612 53.9297 31.2052 50.9857C34.6262 47.5647 36.51 43.0157 36.5104 38.1775L36.5104 0.835613L24.6977 0.835612V7.42137ZM24.698 30.6602L24.6977 39.2513C24.6973 40.9339 24.0423 42.5165 22.8522 43.7065C21.6622 44.8966 20.08 45.552 18.397 45.552C16.714 45.552 15.1318 44.8966 13.9417 43.7065C12.7517 42.5165 12.0963 40.9343 12.0963 39.2513L12.0963 30.6606C12.0963 28.9776 12.7517 27.3954 13.9417 26.2053C15.1322 25.0149 16.7143 24.3595 18.3973 24.3595C20.08 24.3599 21.6625 25.0149 22.8526 26.205C24.0423 27.3954 24.6977 28.9776 24.698 30.6602Z" fill="#008FDD"/>
</svg>
